<?xml version="1.0" encoding="UTF-8"?>
<svg xmlns="http://www.w3.org/2000/svg" xmlns:xlink="http://www.w3.org/1999/xlink" width="200pt" height="200pt" viewBox="0 0 200 200" version="1.1">
<g id="surface1">
<path style="fill-rule:nonzero;fill:rgb(89.019608%,90.196078%,94.117647%);fill-opacity:1;stroke-width:1;stroke-linecap:butt;stroke-linejoin:miter;stroke:rgb(76.862745%,76.862745%,76.862745%);stroke-opacity:1;stroke-dasharray:4,4;stroke-miterlimit:4;" d="M 4.999805 0.500195 L 205.000195 0.500195 C 207.485742 0.500195 209.499609 2.513672 209.499609 4.999414 L 209.499609 125.000586 C 209.499609 127.486328 207.485742 129.499805 205.000195 129.499805 L 4.999805 129.499805 C 2.514258 129.499805 0.500391 127.486328 0.500391 125.000586 L 0.500391 4.999414 C 0.500391 2.513672 2.514258 0.500195 4.999805 0.500195 Z M 4.999805 0.500195 " transform="matrix(0.952381,0,0,1.538462,0,0)"/>
<path style=" stroke:none;fill-rule:nonzero;fill:rgb(76.862745%,76.862745%,76.862745%);fill-opacity:1;" d="M 77.277344 72.46875 L 114.863281 72.46875 L 114.863281 100.691406 L 120.644531 100.691406 L 120.644531 72.46875 C 120.644531 68.019531 118.050781 64.40625 114.863281 64.40625 L 77.277344 64.40625 C 74.089844 64.40625 71.496094 68.019531 71.496094 72.46875 L 71.496094 120.847656 C 71.496094 125.292969 74.089844 128.910156 77.277344 128.910156 L 100.40625 128.910156 L 100.40625 120.847656 L 77.277344 120.847656 Z M 77.277344 72.46875 "/>
<path style=" stroke:none;fill-rule:nonzero;fill:rgb(76.862745%,76.862745%,76.862745%);fill-opacity:1;" d="M 88.84375 96.65625 L 80.171875 112.785156 L 111.972656 112.785156 L 100.410156 88.59375 L 91.734375 104.71875 Z M 88.84375 96.65625 "/>
<path style=" stroke:none;fill-rule:nonzero;fill:rgb(76.862745%,76.862745%,76.862745%);fill-opacity:1;" d="M 120.648438 108.753906 L 114.863281 108.753906 L 114.863281 120.847656 L 106.191406 120.847656 L 106.191406 128.910156 L 114.863281 128.910156 L 114.863281 141.007812 L 120.648438 141.007812 L 120.648438 128.910156 L 129.320312 128.910156 L 129.320312 120.847656 L 120.648438 120.847656 Z M 120.648438 108.753906 "/>
</g>
</svg>
